<svg width="30" height="30" viewBox="0 0 30 30" fill="none" xmlns="http://www.w3.org/2000/svg">
<path d="M28.4871 1.68367C29.7178 2.93367 29.7435 4.89796 28.5384 6.09694L5.97425 28.3929C4.76912 29.5918 2.76912 29.5408 1.53836 28.3163C0.281945 27.0663 0.256304 25.102 1.46143 23.9031L24.0255 1.60714C25.2563 0.40816 27.2307 0.43367 28.4871 1.68367Z" fill="#7339EF"/>
<path d="M0.897326 0.867343C2.10245 -0.331636 4.10245 -0.280616 5.33322 0.969384L29.0512 24.7194C30.2819 25.9694 30.3076 27.9337 29.1025 29.1327C27.8973 30.3316 25.8973 30.2806 24.6666 29.0561L0.948608 5.30612C-0.282162 4.05612 -0.307803 2.06632 0.897326 0.867343Z" fill="#7339EF"/>
</svg>
