<svg width="90" height="265" viewBox="0 0 90 265" fill="none" xmlns="http://www.w3.org/2000/svg">
<g clip-path="url(#clip0_47_5515)">
<path d="M12.51 6.25C12.51 9.7 9.71 12.5 6.26 12.5C2.81 12.5 0 9.71 0 6.25C0 2.8 2.8 0 6.25 0C9.7 0 12.51 2.8 12.51 6.25Z" fill="#7339EF"/>
<path d="M50.7202 6.25C50.7202 9.7 47.9202 12.5 44.4702 12.5C41.0202 12.5 38.2202 9.7 38.2202 6.25C38.2202 2.8 41.0202 0 44.4702 0C47.9202 0 50.7202 2.8 50.7202 6.25Z" fill="#7339EF"/>
<path d="M89.2798 6.25C89.2798 9.7 86.4798 12.5 83.0298 12.5C79.5798 12.5 76.7798 9.7 76.7798 6.25C76.7798 2.8 79.5798 0 83.0298 0C86.4798 0 89.2798 2.8 89.2798 6.25Z" fill="#7339EF"/>
<path d="M12.51 42.3799C12.51 45.8299 9.71 48.6299 6.26 48.6299C2.81 48.6299 0 45.8399 0 42.3799C0 38.9299 2.8 36.1299 6.25 36.1299C9.7 36.1299 12.51 38.9299 12.51 42.3799Z" fill="#7339EF"/>
<path d="M44.4702 48.6299C47.922 48.6299 50.7202 45.8317 50.7202 42.3799C50.7202 38.9281 47.922 36.1299 44.4702 36.1299C41.0184 36.1299 38.2202 38.9281 38.2202 42.3799C38.2202 45.8317 41.0184 48.6299 44.4702 48.6299Z" fill="#7339EF"/>
<path d="M89.2798 42.3799C89.2798 45.8299 86.4798 48.6299 83.0298 48.6299C79.5798 48.6299 76.7798 45.8299 76.7798 42.3799C76.7798 38.9299 79.5798 36.1299 83.0298 36.1299C86.4798 36.1299 89.2798 38.9299 89.2798 42.3799Z" fill="#7339EF"/>
<path d="M12.51 78.51C12.51 81.96 9.71 84.76 6.26 84.76C2.81 84.76 0 81.97 0 78.51C0 75.06 2.8 72.26 6.25 72.26C9.7 72.26 12.51 75.06 12.51 78.51Z" fill="#7339EF"/>
<path d="M44.4702 84.76C47.922 84.76 50.7202 81.9618 50.7202 78.51C50.7202 75.0582 47.922 72.26 44.4702 72.26C41.0184 72.26 38.2202 75.0582 38.2202 78.51C38.2202 81.9618 41.0184 84.76 44.4702 84.76Z" fill="#7339EF"/>
<path d="M89.2798 78.51C89.2798 81.96 86.4798 84.76 83.0298 84.76C79.5798 84.76 76.7798 81.96 76.7798 78.51C76.7798 75.06 79.5798 72.26 83.0298 72.26C86.4798 72.26 89.2798 75.06 89.2798 78.51Z" fill="#7339EF"/>
<path d="M12.51 114.64C12.51 118.09 9.71 120.89 6.26 120.89C2.81 120.89 0 118.1 0 114.64C0 111.19 2.8 108.39 6.25 108.39C9.7 108.39 12.51 111.19 12.51 114.64Z" fill="#7339EF"/>
<path d="M50.7202 114.64C50.7202 118.09 47.9202 120.89 44.4702 120.89C41.0202 120.89 38.2202 118.09 38.2202 114.64C38.2202 111.19 41.0202 108.39 44.4702 108.39C47.9202 108.39 50.7202 111.19 50.7202 114.64Z" fill="#7339EF"/>
<path d="M89.2798 114.64C89.2798 118.09 86.4798 120.89 83.0298 120.89C79.5798 120.89 76.7798 118.09 76.7798 114.64C76.7798 111.19 79.5798 108.39 83.0298 108.39C86.4798 108.39 89.2798 111.19 89.2798 114.64Z" fill="#7339EF"/>
<path d="M12.51 150.77C12.51 154.22 9.71 157.02 6.26 157.02C2.81 157.02 0 154.23 0 150.77C0 147.32 2.8 144.52 6.25 144.52C9.7 144.52 12.51 147.32 12.51 150.77Z" fill="#7339EF"/>
<path d="M44.4702 157.02C47.922 157.02 50.7202 154.222 50.7202 150.77C50.7202 147.318 47.922 144.52 44.4702 144.52C41.0184 144.52 38.2202 147.318 38.2202 150.77C38.2202 154.222 41.0184 157.02 44.4702 157.02Z" fill="#7339EF"/>
<path d="M89.2798 150.77C89.2798 154.22 86.4798 157.02 83.0298 157.02C79.5798 157.02 76.7798 154.22 76.7798 150.77C76.7798 147.32 79.5798 144.52 83.0298 144.52C86.4798 144.52 89.2798 147.32 89.2798 150.77Z" fill="#7339EF"/>
<path d="M12.51 185.51C12.51 188.96 9.71 191.76 6.26 191.76C2.81 191.76 0 188.97 0 185.51C0 182.06 2.8 179.26 6.25 179.26C9.7 179.26 12.51 182.06 12.51 185.51Z" fill="#7339EF"/>
<path d="M44.4702 191.76C47.922 191.76 50.7202 188.962 50.7202 185.51C50.7202 182.058 47.922 179.26 44.4702 179.26C41.0184 179.26 38.2202 182.058 38.2202 185.51C38.2202 188.962 41.0184 191.76 44.4702 191.76Z" fill="#7339EF"/>
<path d="M89.2798 185.51C89.2798 188.96 86.4798 191.76 83.0298 191.76C79.5798 191.76 76.7798 188.96 76.7798 185.51C76.7798 182.06 79.5798 179.26 83.0298 179.26C86.4798 179.26 89.2798 182.06 89.2798 185.51Z" fill="#7339EF"/>
<path d="M12.51 221.64C12.51 225.09 9.71 227.89 6.26 227.89C2.81 227.89 0 225.1 0 221.64C0 218.18 2.8 215.39 6.25 215.39C9.7 215.39 12.51 218.19 12.51 221.64Z" fill="#7339EF"/>
<path d="M50.7202 221.64C50.7202 225.09 47.9202 227.89 44.4702 227.89C41.0202 227.89 38.2202 225.09 38.2202 221.64C38.2202 218.19 41.0202 215.39 44.4702 215.39C47.9202 215.39 50.7202 218.19 50.7202 221.64Z" fill="#7339EF"/>
<path d="M89.2798 221.64C89.2798 225.09 86.4798 227.89 83.0298 227.89C79.5798 227.89 76.7798 225.09 76.7798 221.64C76.7798 218.19 79.5798 215.39 83.0298 215.39C86.4798 215.39 89.2798 218.19 89.2798 221.64Z" fill="#7339EF"/>
<path d="M12.51 257.77C12.51 261.22 9.71 264.02 6.26 264.02C2.81 264.02 0 261.23 0 257.77C0 254.32 2.8 251.52 6.25 251.52C9.7 251.52 12.51 254.32 12.51 257.77Z" fill="#7339EF"/>
<path d="M50.7202 257.77C50.7202 261.22 47.9202 264.02 44.4702 264.02C41.0202 264.02 38.2202 261.22 38.2202 257.77C38.2202 254.32 41.0202 251.52 44.4702 251.52C47.9202 251.52 50.7202 254.32 50.7202 257.77Z" fill="#7339EF"/>
<path d="M89.2798 257.77C89.2798 261.22 86.4798 264.02 83.0298 264.02C79.5798 264.02 76.7798 261.22 76.7798 257.77C76.7798 254.32 79.5798 251.52 83.0298 251.52C86.4798 251.52 89.2798 254.32 89.2798 257.77Z" fill="#7339EF"/>
</g>
<defs>
<clipPath id="clip0_47_5515">
<rect width="89.28" height="264.03" fill="white"/>
</clipPath>
</defs>
</svg>
