<svg width="141" height="145" viewBox="0 0 141 145" fill="none" xmlns="http://www.w3.org/2000/svg">
<g clip-path="url(#clip0_47_5216)">
<path d="M51.7401 0C50.4201 0 49.3501 1.07 49.3501 2.39C49.3501 3.71 50.4201 4.78 51.7401 4.78C53.0601 4.78 54.1301 3.71 54.1301 2.39C54.1301 1.07 53.0601 0 51.7401 0Z" fill="white"/>
<path d="M64.0799 0C62.7599 0 61.6899 1.07 61.6899 2.39C61.6899 3.71 62.7599 4.78 64.0799 4.78C65.3999 4.78 66.4699 3.71 66.4699 2.39C66.4699 1.07 65.3999 0 64.0799 0Z" fill="white"/>
<path d="M76.42 0C75.1 0 74.03 1.07 74.03 2.39C74.03 3.71 75.1 4.78 76.42 4.78C77.74 4.78 78.81 3.71 78.81 2.39C78.8 1.07 77.74 0 76.42 0Z" fill="white"/>
<path d="M88.7601 0C87.4401 0 86.3701 1.07 86.3701 2.39C86.3701 3.71 87.4401 4.78 88.7601 4.78C90.0801 4.78 91.1501 3.71 91.1501 2.39C91.1401 1.07 90.0701 0 88.7601 0Z" fill="white"/>
<path d="M51.7401 139.95C50.4201 139.95 49.3501 141.02 49.3501 142.34C49.3501 143.66 50.4201 144.73 51.7401 144.73C53.0601 144.73 54.1301 143.66 54.1301 142.34C54.1301 141.01 53.0601 139.95 51.7401 139.95Z" fill="white"/>
<path d="M64.0799 139.95C62.7599 139.95 61.6899 141.02 61.6899 142.34C61.6899 143.66 62.7599 144.73 64.0799 144.73C65.3999 144.73 66.4699 143.66 66.4699 142.34C66.4699 141.01 65.3999 139.95 64.0799 139.95Z" fill="white"/>
<path d="M76.42 139.95C75.1 139.95 74.03 141.02 74.03 142.34C74.03 143.66 75.1 144.73 76.42 144.73C77.74 144.73 78.81 143.66 78.81 142.34C78.8 141.01 77.74 139.95 76.42 139.95Z" fill="white"/>
<path d="M88.7601 139.95C87.4401 139.95 86.3701 141.02 86.3701 142.34C86.3701 143.66 87.4401 144.73 88.7601 144.73C90.0801 144.73 91.1501 143.66 91.1501 142.34C91.1401 141.01 90.0701 139.95 88.7601 139.95Z" fill="white"/>
<path d="M27.0599 15.55C25.7399 15.55 24.6699 16.62 24.6699 17.94C24.6699 19.26 25.7399 20.33 27.0599 20.33C28.3799 20.33 29.4499 19.26 29.4499 17.94C29.4499 16.62 28.3799 15.55 27.0599 15.55Z" fill="white"/>
<path d="M39.4 15.55C38.08 15.55 37.01 16.62 37.01 17.94C37.01 19.26 38.08 20.33 39.4 20.33C40.72 20.33 41.79 19.26 41.79 17.94C41.79 16.62 40.72 15.55 39.4 15.55Z" fill="white"/>
<path d="M51.7401 15.55C50.4201 15.55 49.3501 16.62 49.3501 17.94C49.3501 19.26 50.4201 20.33 51.7401 20.33C53.0601 20.33 54.1301 19.26 54.1301 17.94C54.1301 16.62 53.0601 15.55 51.7401 15.55Z" fill="white"/>
<path d="M64.0799 15.55C62.7599 15.55 61.6899 16.62 61.6899 17.94C61.6899 19.26 62.7599 20.33 64.0799 20.33C65.3999 20.33 66.4699 19.26 66.4699 17.94C66.4699 16.62 65.3999 15.55 64.0799 15.55Z" fill="white"/>
<path d="M76.42 15.55C75.1 15.55 74.03 16.62 74.03 17.94C74.03 19.26 75.1 20.33 76.42 20.33C77.74 20.33 78.81 19.26 78.81 17.94C78.8 16.62 77.74 15.55 76.42 15.55Z" fill="white"/>
<path d="M88.7601 15.55C87.4401 15.55 86.3701 16.62 86.3701 17.94C86.3701 19.26 87.4401 20.33 88.7601 20.33C90.0801 20.33 91.1501 19.26 91.1501 17.94C91.1401 16.62 90.0701 15.55 88.7601 15.55Z" fill="white"/>
<path d="M101.09 15.55C99.77 15.55 98.7 16.62 98.7 17.94C98.7 19.26 99.77 20.33 101.09 20.33C102.41 20.33 103.48 19.26 103.48 17.94C103.48 16.62 102.41 15.55 101.09 15.55Z" fill="white"/>
<path d="M113.43 15.55C112.11 15.55 111.04 16.62 111.04 17.94C111.04 19.26 112.11 20.33 113.43 20.33C114.75 20.33 115.82 19.26 115.82 17.94C115.82 16.62 114.75 15.55 113.43 15.55Z" fill="white"/>
<path d="M14.7301 31.1001C13.4101 31.1001 12.3401 32.1701 12.3401 33.4901C12.3401 34.8101 13.4101 35.8801 14.7301 35.8801C16.0501 35.8801 17.1201 34.8101 17.1201 33.4901C17.1101 32.1701 16.0401 31.1001 14.7301 31.1001Z" fill="white"/>
<path d="M27.0599 31.1001C25.7399 31.1001 24.6699 32.1701 24.6699 33.4901C24.6699 34.8101 25.7399 35.8801 27.0599 35.8801C28.3799 35.8801 29.4499 34.8101 29.4499 33.4901C29.4499 32.1701 28.3799 31.1001 27.0599 31.1001Z" fill="white"/>
<path d="M39.4 31.1001C38.08 31.1001 37.01 32.1701 37.01 33.4901C37.01 34.8101 38.08 35.8801 39.4 35.8801C40.72 35.8801 41.79 34.8101 41.79 33.4901C41.79 32.1701 40.72 31.1001 39.4 31.1001Z" fill="white"/>
<path d="M51.7401 31.1001C50.4201 31.1001 49.3501 32.1701 49.3501 33.4901C49.3501 34.8101 50.4201 35.8801 51.7401 35.8801C53.0601 35.8801 54.1301 34.8101 54.1301 33.4901C54.1301 32.1701 53.0601 31.1001 51.7401 31.1001Z" fill="white"/>
<path d="M64.0799 31.1001C62.7599 31.1001 61.6899 32.1701 61.6899 33.4901C61.6899 34.8101 62.7599 35.8801 64.0799 35.8801C65.3999 35.8801 66.4699 34.8101 66.4699 33.4901C66.4699 32.1701 65.3999 31.1001 64.0799 31.1001Z" fill="white"/>
<path d="M76.42 31.1001C75.1 31.1001 74.03 32.1701 74.03 33.4901C74.03 34.8101 75.1 35.8801 76.42 35.8801C77.74 35.8801 78.81 34.8101 78.81 33.4901C78.8 32.1701 77.74 31.1001 76.42 31.1001Z" fill="white"/>
<path d="M88.7601 31.1001C87.4401 31.1001 86.3701 32.1701 86.3701 33.4901C86.3701 34.8101 87.4401 35.8801 88.7601 35.8801C90.0801 35.8801 91.1501 34.8101 91.1501 33.4901C91.1401 32.1701 90.0701 31.1001 88.7601 31.1001Z" fill="white"/>
<path d="M101.09 31.1001C99.77 31.1001 98.7 32.1701 98.7 33.4901C98.7 34.8101 99.77 35.8801 101.09 35.8801C102.41 35.8801 103.48 34.8101 103.48 33.4901C103.48 32.1701 102.41 31.1001 101.09 31.1001Z" fill="white"/>
<path d="M113.43 31.1001C112.11 31.1001 111.04 32.1701 111.04 33.4901C111.04 34.8101 112.11 35.8801 113.43 35.8801C114.75 35.8801 115.82 34.8101 115.82 33.4901C115.82 32.1701 114.75 31.1001 113.43 31.1001Z" fill="white"/>
<path d="M125.77 31.1001C124.45 31.1001 123.38 32.1701 123.38 33.4901C123.38 34.8101 124.45 35.8801 125.77 35.8801C127.09 35.8801 128.16 34.8101 128.16 33.4901C128.16 32.1701 127.09 31.1001 125.77 31.1001Z" fill="white"/>
<path d="M2.39 46.6499C1.07 46.6499 0 47.7199 0 49.0399C0 50.3599 1.07 51.4299 2.39 51.4299C3.71 51.4299 4.78 50.3599 4.78 49.0399C4.77 47.7199 3.71 46.6499 2.39 46.6499Z" fill="white"/>
<path d="M14.7301 46.6499C13.4101 46.6499 12.3401 47.7199 12.3401 49.0399C12.3401 50.3599 13.4101 51.4299 14.7301 51.4299C16.0501 51.4299 17.1201 50.3599 17.1201 49.0399C17.1101 47.7199 16.0401 46.6499 14.7301 46.6499Z" fill="white"/>
<path d="M27.0599 46.6499C25.7399 46.6499 24.6699 47.7199 24.6699 49.0399C24.6699 50.3599 25.7399 51.4299 27.0599 51.4299C28.3799 51.4299 29.4499 50.3599 29.4499 49.0399C29.4499 47.7199 28.3799 46.6499 27.0599 46.6499Z" fill="white"/>
<path d="M39.4 46.6499C38.08 46.6499 37.01 47.7199 37.01 49.0399C37.01 50.3599 38.08 51.4299 39.4 51.4299C40.72 51.4299 41.79 50.3599 41.79 49.0399C41.79 47.7199 40.72 46.6499 39.4 46.6499Z" fill="white"/>
<path d="M51.7401 46.6499C50.4201 46.6499 49.3501 47.7199 49.3501 49.0399C49.3501 50.3599 50.4201 51.4299 51.7401 51.4299C53.0601 51.4299 54.1301 50.3599 54.1301 49.0399C54.1301 47.7199 53.0601 46.6499 51.7401 46.6499Z" fill="white"/>
<path d="M64.0799 46.6499C62.7599 46.6499 61.6899 47.7199 61.6899 49.0399C61.6899 50.3599 62.7599 51.4299 64.0799 51.4299C65.3999 51.4299 66.4699 50.3599 66.4699 49.0399C66.4699 47.7199 65.3999 46.6499 64.0799 46.6499Z" fill="white"/>
<path d="M76.42 46.6499C75.1 46.6499 74.03 47.7199 74.03 49.0399C74.03 50.3599 75.1 51.4299 76.42 51.4299C77.74 51.4299 78.81 50.3599 78.81 49.0399C78.8 47.7199 77.74 46.6499 76.42 46.6499Z" fill="white"/>
<path d="M88.7601 46.6499C87.4401 46.6499 86.3701 47.7199 86.3701 49.0399C86.3701 50.3599 87.4401 51.4299 88.7601 51.4299C90.0801 51.4299 91.1501 50.3599 91.1501 49.0399C91.1401 47.7199 90.0701 46.6499 88.7601 46.6499Z" fill="white"/>
<path d="M101.09 46.6499C99.77 46.6499 98.7 47.7199 98.7 49.0399C98.7 50.3599 99.77 51.4299 101.09 51.4299C102.41 51.4299 103.48 50.3599 103.48 49.0399C103.48 47.7199 102.41 46.6499 101.09 46.6499Z" fill="white"/>
<path d="M113.43 46.6499C112.11 46.6499 111.04 47.7199 111.04 49.0399C111.04 50.3599 112.11 51.4299 113.43 51.4299C114.75 51.4299 115.82 50.3599 115.82 49.0399C115.82 47.7199 114.75 46.6499 113.43 46.6499Z" fill="white"/>
<path d="M125.77 46.6499C124.45 46.6499 123.38 47.7199 123.38 49.0399C123.38 50.3599 124.45 51.4299 125.77 51.4299C127.09 51.4299 128.16 50.3599 128.16 49.0399C128.16 47.7199 127.09 46.6499 125.77 46.6499Z" fill="white"/>
<path d="M138.11 51.4199C139.43 51.4199 140.5 50.3499 140.5 49.0299C140.5 47.7099 139.43 46.6399 138.11 46.6399C136.79 46.6399 135.72 47.7099 135.72 49.0299C135.72 50.3499 136.79 51.4199 138.11 51.4199Z" fill="white"/>
<path d="M2.39 62.2C1.07 62.2 0 63.2699 0 64.5899C0 65.9099 1.07 66.98 2.39 66.98C3.71 66.98 4.78 65.9099 4.78 64.5899C4.77 63.2699 3.71 62.2 2.39 62.2Z" fill="white"/>
<path d="M14.7301 62.2C13.4101 62.2 12.3401 63.2699 12.3401 64.5899C12.3401 65.9099 13.4101 66.98 14.7301 66.98C16.0501 66.98 17.1201 65.9099 17.1201 64.5899C17.1101 63.2699 16.0401 62.2 14.7301 62.2Z" fill="white"/>
<path d="M27.0599 62.2C25.7399 62.2 24.6699 63.2699 24.6699 64.5899C24.6699 65.9099 25.7399 66.98 27.0599 66.98C28.3799 66.98 29.4499 65.9099 29.4499 64.5899C29.4499 63.2699 28.3799 62.2 27.0599 62.2Z" fill="white"/>
<path d="M39.4 62.2C38.08 62.2 37.01 63.2699 37.01 64.5899C37.01 65.9099 38.08 66.98 39.4 66.98C40.72 66.98 41.79 65.9099 41.79 64.5899C41.79 63.2699 40.72 62.2 39.4 62.2Z" fill="white"/>
<path d="M51.7401 62.2C50.4201 62.2 49.3501 63.2699 49.3501 64.5899C49.3501 65.9099 50.4201 66.98 51.7401 66.98C53.0601 66.98 54.1301 65.9099 54.1301 64.5899C54.1301 63.2699 53.0601 62.2 51.7401 62.2Z" fill="white"/>
<path d="M64.0799 62.2C62.7599 62.2 61.6899 63.2699 61.6899 64.5899C61.6899 65.9099 62.7599 66.98 64.0799 66.98C65.3999 66.98 66.4699 65.9099 66.4699 64.5899C66.4699 63.2699 65.3999 62.2 64.0799 62.2Z" fill="white"/>
<path d="M76.42 62.2C75.1 62.2 74.03 63.2699 74.03 64.5899C74.03 65.9099 75.1 66.98 76.42 66.98C77.74 66.98 78.81 65.9099 78.81 64.5899C78.8 63.2699 77.74 62.2 76.42 62.2Z" fill="white"/>
<path d="M88.7601 62.2C87.4401 62.2 86.3701 63.2699 86.3701 64.5899C86.3701 65.9099 87.4401 66.98 88.7601 66.98C90.0801 66.98 91.1501 65.9099 91.1501 64.5899C91.1401 63.2699 90.0701 62.2 88.7601 62.2Z" fill="white"/>
<path d="M101.09 62.2C99.77 62.2 98.7 63.2699 98.7 64.5899C98.7 65.9099 99.77 66.98 101.09 66.98C102.41 66.98 103.48 65.9099 103.48 64.5899C103.48 63.2699 102.41 62.2 101.09 62.2Z" fill="white"/>
<path d="M113.43 62.2C112.11 62.2 111.04 63.2699 111.04 64.5899C111.04 65.9099 112.11 66.98 113.43 66.98C114.75 66.98 115.82 65.9099 115.82 64.5899C115.82 63.2699 114.75 62.2 113.43 62.2Z" fill="white"/>
<path d="M125.77 62.2C124.45 62.2 123.38 63.2699 123.38 64.5899C123.38 65.9099 124.45 66.98 125.77 66.98C127.09 66.98 128.16 65.9099 128.16 64.5899C128.16 63.2699 127.09 62.2 125.77 62.2Z" fill="white"/>
<path d="M138.11 62.2C136.79 62.2 135.72 63.2699 135.72 64.5899C135.72 65.9099 136.79 66.98 138.11 66.98C139.43 66.98 140.5 65.9099 140.5 64.5899C140.5 63.2699 139.43 62.2 138.11 62.2Z" fill="white"/>
<path d="M2.39 77.75C1.07 77.75 0 78.82 0 80.13C0 81.45 1.07 82.52 2.39 82.52C3.71 82.52 4.78 81.45 4.78 80.13C4.77 78.82 3.71 77.75 2.39 77.75Z" fill="white"/>
<path d="M14.7301 77.75C13.4101 77.75 12.3401 78.82 12.3401 80.14C12.3401 81.46 13.4101 82.53 14.7301 82.53C16.0501 82.53 17.1201 81.46 17.1201 80.14C17.1101 78.82 16.0401 77.75 14.7301 77.75Z" fill="white"/>
<path d="M27.0599 77.75C25.7399 77.75 24.6699 78.82 24.6699 80.14C24.6699 81.46 25.7399 82.53 27.0599 82.53C28.3799 82.53 29.4499 81.46 29.4499 80.14C29.4499 78.82 28.3799 77.75 27.0599 77.75Z" fill="white"/>
<path d="M39.4 77.75C38.08 77.75 37.01 78.82 37.01 80.14C37.01 81.46 38.08 82.53 39.4 82.53C40.72 82.53 41.79 81.46 41.79 80.14C41.79 78.82 40.72 77.75 39.4 77.75Z" fill="white"/>
<path d="M51.7401 77.75C50.4201 77.75 49.3501 78.82 49.3501 80.14C49.3501 81.46 50.4201 82.53 51.7401 82.53C53.0601 82.53 54.1301 81.46 54.1301 80.14C54.1301 78.82 53.0601 77.75 51.7401 77.75Z" fill="white"/>
<path d="M64.0799 77.75C62.7599 77.75 61.6899 78.82 61.6899 80.14C61.6899 81.46 62.7599 82.53 64.0799 82.53C65.3999 82.53 66.4699 81.46 66.4699 80.14C66.4699 78.82 65.3999 77.75 64.0799 77.75Z" fill="white"/>
<path d="M76.42 77.75C75.1 77.75 74.03 78.82 74.03 80.14C74.03 81.46 75.1 82.53 76.42 82.53C77.74 82.53 78.81 81.46 78.81 80.14C78.8 78.82 77.74 77.75 76.42 77.75Z" fill="white"/>
<path d="M88.7601 77.75C87.4401 77.75 86.3701 78.82 86.3701 80.14C86.3701 81.46 87.4401 82.53 88.7601 82.53C90.0801 82.53 91.1501 81.46 91.1501 80.14C91.1401 78.82 90.0701 77.75 88.7601 77.75Z" fill="white"/>
<path d="M101.09 77.75C99.77 77.75 98.7 78.82 98.7 80.14C98.7 81.46 99.77 82.53 101.09 82.53C102.41 82.53 103.48 81.46 103.48 80.14C103.48 78.82 102.41 77.75 101.09 77.75Z" fill="white"/>
<path d="M113.43 77.75C112.11 77.75 111.04 78.82 111.04 80.14C111.04 81.46 112.11 82.53 113.43 82.53C114.75 82.53 115.82 81.46 115.82 80.14C115.82 78.82 114.75 77.75 113.43 77.75Z" fill="white"/>
<path d="M125.77 77.75C124.45 77.75 123.38 78.82 123.38 80.14C123.38 81.46 124.45 82.53 125.77 82.53C127.09 82.53 128.16 81.46 128.16 80.14C128.16 78.82 127.09 77.75 125.77 77.75Z" fill="white"/>
<path d="M138.11 77.75C136.79 77.75 135.72 78.82 135.72 80.14C135.72 81.46 136.79 82.53 138.11 82.53C139.43 82.53 140.5 81.46 140.5 80.14C140.5 78.82 139.43 77.75 138.11 77.75Z" fill="white"/>
<path d="M2.39 93.3C1.07 93.3 0 94.37 0 95.68C0 97 1.07 98.07 2.39 98.07C3.71 98.07 4.78 97 4.78 95.68C4.77 94.37 3.71 93.3 2.39 93.3Z" fill="white"/>
<path d="M14.7301 93.3C13.4101 93.3 12.3401 94.37 12.3401 95.69C12.3401 97.01 13.4101 98.08 14.7301 98.08C16.0501 98.08 17.1201 97.01 17.1201 95.69C17.1101 94.37 16.0401 93.3 14.7301 93.3Z" fill="white"/>
<path d="M27.0599 93.3C25.7399 93.3 24.6699 94.37 24.6699 95.69C24.6699 97.01 25.7399 98.08 27.0599 98.08C28.3799 98.08 29.4499 97.01 29.4499 95.69C29.4499 94.37 28.3799 93.3 27.0599 93.3Z" fill="white"/>
<path d="M39.4 93.3C38.08 93.3 37.01 94.37 37.01 95.69C37.01 97.01 38.08 98.08 39.4 98.08C40.72 98.08 41.79 97.01 41.79 95.69C41.79 94.37 40.72 93.3 39.4 93.3Z" fill="white"/>
<path d="M51.7401 93.3C50.4201 93.3 49.3501 94.37 49.3501 95.69C49.3501 97.01 50.4201 98.08 51.7401 98.08C53.0601 98.08 54.1301 97.01 54.1301 95.69C54.1301 94.37 53.0601 93.3 51.7401 93.3Z" fill="white"/>
<path d="M64.0799 93.3C62.7599 93.3 61.6899 94.37 61.6899 95.69C61.6899 97.01 62.7599 98.08 64.0799 98.08C65.3999 98.08 66.4699 97.01 66.4699 95.69C66.4699 94.37 65.3999 93.3 64.0799 93.3Z" fill="white"/>
<path d="M76.42 93.3C75.1 93.3 74.03 94.37 74.03 95.69C74.03 97.01 75.1 98.08 76.42 98.08C77.74 98.08 78.81 97.01 78.81 95.69C78.8 94.37 77.74 93.3 76.42 93.3Z" fill="white"/>
<path d="M88.7601 93.3C87.4401 93.3 86.3701 94.37 86.3701 95.69C86.3701 97.01 87.4401 98.08 88.7601 98.08C90.0801 98.08 91.1501 97.01 91.1501 95.69C91.1401 94.37 90.0701 93.3 88.7601 93.3Z" fill="white"/>
<path d="M101.09 93.3C99.77 93.3 98.7 94.37 98.7 95.69C98.7 97.01 99.77 98.08 101.09 98.08C102.41 98.08 103.48 97.01 103.48 95.69C103.48 94.37 102.41 93.3 101.09 93.3Z" fill="white"/>
<path d="M113.43 93.3C112.11 93.3 111.04 94.37 111.04 95.69C111.04 97.01 112.11 98.08 113.43 98.08C114.75 98.08 115.82 97.01 115.82 95.69C115.82 94.37 114.75 93.3 113.43 93.3Z" fill="white"/>
<path d="M125.77 93.3C124.45 93.3 123.38 94.37 123.38 95.69C123.38 97.01 124.45 98.08 125.77 98.08C127.09 98.08 128.16 97.01 128.16 95.69C128.16 94.37 127.09 93.3 125.77 93.3Z" fill="white"/>
<path d="M138.11 93.3C136.79 93.3 135.72 94.37 135.72 95.69C135.72 97.01 136.79 98.08 138.11 98.08C139.43 98.08 140.5 97.01 140.5 95.69C140.5 94.37 139.43 93.3 138.11 93.3Z" fill="white"/>
<path d="M14.7301 108.85C13.4101 108.85 12.3401 109.92 12.3401 111.24C12.3401 112.56 13.4101 113.63 14.7301 113.63C16.0501 113.63 17.1201 112.56 17.1201 111.24C17.1101 109.92 16.0401 108.85 14.7301 108.85Z" fill="white"/>
<path d="M27.0599 108.85C25.7399 108.85 24.6699 109.92 24.6699 111.24C24.6699 112.56 25.7399 113.63 27.0599 113.63C28.3799 113.63 29.4499 112.56 29.4499 111.24C29.4499 109.92 28.3799 108.85 27.0599 108.85Z" fill="white"/>
<path d="M39.4 108.85C38.08 108.85 37.01 109.92 37.01 111.24C37.01 112.56 38.08 113.63 39.4 113.63C40.72 113.63 41.79 112.56 41.79 111.24C41.79 109.92 40.72 108.85 39.4 108.85Z" fill="white"/>
<path d="M51.7401 108.85C50.4201 108.85 49.3501 109.92 49.3501 111.24C49.3501 112.56 50.4201 113.63 51.7401 113.63C53.0601 113.63 54.1301 112.56 54.1301 111.24C54.1301 109.92 53.0601 108.85 51.7401 108.85Z" fill="white"/>
<path d="M64.0799 108.85C62.7599 108.85 61.6899 109.92 61.6899 111.24C61.6899 112.56 62.7599 113.63 64.0799 113.63C65.3999 113.63 66.4699 112.56 66.4699 111.24C66.4699 109.92 65.3999 108.85 64.0799 108.85Z" fill="white"/>
<path d="M76.42 108.85C75.1 108.85 74.03 109.92 74.03 111.24C74.03 112.56 75.1 113.63 76.42 113.63C77.74 113.63 78.81 112.56 78.81 111.24C78.8 109.92 77.74 108.85 76.42 108.85Z" fill="white"/>
<path d="M88.7601 108.85C87.4401 108.85 86.3701 109.92 86.3701 111.24C86.3701 112.56 87.4401 113.63 88.7601 113.63C90.0801 113.63 91.1501 112.56 91.1501 111.24C91.1401 109.92 90.0701 108.85 88.7601 108.85Z" fill="white"/>
<path d="M101.09 108.85C99.77 108.85 98.7 109.92 98.7 111.24C98.7 112.56 99.77 113.63 101.09 113.63C102.41 113.63 103.48 112.56 103.48 111.24C103.48 109.92 102.41 108.85 101.09 108.85Z" fill="white"/>
<path d="M113.43 108.85C112.11 108.85 111.04 109.92 111.04 111.24C111.04 112.56 112.11 113.63 113.43 113.63C114.75 113.63 115.82 112.56 115.82 111.24C115.82 109.92 114.75 108.85 113.43 108.85Z" fill="white"/>
<path d="M125.77 108.85C124.45 108.85 123.38 109.92 123.38 111.24C123.38 112.56 124.45 113.63 125.77 113.63C127.09 113.63 128.16 112.56 128.16 111.24C128.16 109.92 127.09 108.85 125.77 108.85Z" fill="white"/>
<path d="M27.0599 124.4C25.7399 124.4 24.6699 125.47 24.6699 126.79C24.6699 128.11 25.7399 129.18 27.0599 129.18C28.3799 129.18 29.4499 128.11 29.4499 126.79C29.4499 125.46 28.3799 124.4 27.0599 124.4Z" fill="white"/>
<path d="M39.4 124.4C38.08 124.4 37.01 125.47 37.01 126.79C37.01 128.11 38.08 129.18 39.4 129.18C40.72 129.18 41.79 128.11 41.79 126.79C41.79 125.46 40.72 124.4 39.4 124.4Z" fill="white"/>
<path d="M51.7401 124.4C50.4201 124.4 49.3501 125.47 49.3501 126.79C49.3501 128.11 50.4201 129.18 51.7401 129.18C53.0601 129.18 54.1301 128.11 54.1301 126.79C54.1301 125.46 53.0601 124.4 51.7401 124.4Z" fill="white"/>
<path d="M64.0799 124.4C62.7599 124.4 61.6899 125.47 61.6899 126.79C61.6899 128.11 62.7599 129.18 64.0799 129.18C65.3999 129.18 66.4699 128.11 66.4699 126.79C66.4699 125.46 65.3999 124.4 64.0799 124.4Z" fill="white"/>
<path d="M76.42 124.4C75.1 124.4 74.03 125.47 74.03 126.79C74.03 128.11 75.1 129.18 76.42 129.18C77.74 129.18 78.81 128.11 78.81 126.79C78.8 125.46 77.74 124.4 76.42 124.4Z" fill="white"/>
<path d="M88.7601 124.4C87.4401 124.4 86.3701 125.47 86.3701 126.79C86.3701 128.11 87.4401 129.18 88.7601 129.18C90.0801 129.18 91.1501 128.11 91.1501 126.79C91.1401 125.46 90.0701 124.4 88.7601 124.4Z" fill="white"/>
<path d="M101.09 124.4C99.77 124.4 98.7 125.47 98.7 126.79C98.7 128.11 99.77 129.18 101.09 129.18C102.41 129.18 103.48 128.11 103.48 126.79C103.48 125.46 102.41 124.4 101.09 124.4Z" fill="white"/>
<path d="M113.43 124.4C112.11 124.4 111.04 125.47 111.04 126.79C111.04 128.11 112.11 129.18 113.43 129.18C114.75 129.18 115.82 128.11 115.82 126.79C115.82 125.46 114.75 124.4 113.43 124.4Z" fill="white"/>
</g>
<defs>
<clipPath id="clip0_47_5216">
<rect width="140.5" height="144.72" fill="white"/>
</clipPath>
</defs>
</svg>
